<svg width="401" height="75" viewBox="0 0 401 75" fill="none" xmlns="http://www.w3.org/2000/svg">
<path fill-rule="evenodd" clip-rule="evenodd" d="M201 0.0128772C202.909 0.0772631 203.82 0.206034 204.904 0.59235C205.685 0.871354 207.052 1.57959 207.942 2.15908C208.831 2.76 210.002 3.79018 210.545 4.43404C211.087 5.07789 211.868 6.1939 212.28 6.90217C212.693 7.6104 213.234 8.76935 213.973 10.7653L215.685 10.7224C216.618 10.7009 219.741 10.5721 222.626 10.4648C225.533 10.3361 230.762 10.2288 234.233 10.2288C237.725 10.2288 242.778 10.3361 245.469 10.4434C248.159 10.5721 252.302 10.8082 254.687 10.9799C257.075 11.1516 260.871 11.495 263.149 11.7311C265.426 11.9886 269.656 12.5037 272.582 12.933C275.511 13.3407 280.198 14.1134 282.995 14.6285C285.794 15.1436 290.783 16.1523 294.057 16.8605C297.334 17.5688 305.013 19.2427 311.086 20.5949C317.159 21.9683 324.687 23.621 327.79 24.2863C330.892 24.9517 337.139 26.261 341.672 27.1836C346.206 28.1279 351.911 29.2225 354.361 29.6304C356.815 30.0596 360.719 30.639 363.039 30.9394C365.36 31.24 368.875 31.6262 370.847 31.7981C372.821 31.9697 374.535 32.2058 374.645 32.3346C374.775 32.4418 374.297 32.5921 373.343 32.6993C372.518 32.7853 369.177 32.871 365.967 32.871C362.452 32.871 359.199 32.7639 357.834 32.5921C356.574 32.4418 352.865 31.9268 349.59 31.4546C346.316 30.9825 342.995 30.5103 342.214 30.3814C341.434 30.2526 339.438 29.9093 337.768 29.6089C336.098 29.33 331.608 28.4071 327.79 27.57C323.974 26.7544 319.091 25.7458 316.944 25.3379C314.796 24.9303 311.044 24.2649 308.593 23.8571C306.142 23.4493 300.869 22.6337 296.879 22.0543C292.887 21.4535 285.426 20.4017 280.284 19.6935C275.143 18.9852 268.571 18.1053 265.642 17.7404C262.713 17.3971 257.942 16.8605 255.013 16.56C252.085 16.281 248.245 15.9162 246.444 15.7659C244.385 15.5942 239.741 15.487 233.754 15.487C226.922 15.5084 222.975 15.6157 219.438 15.8732C216.748 16.0879 214.34 16.281 214.081 16.3454C213.691 16.4313 213.321 16.1952 212.497 15.3797C211.629 14.5211 211.261 14.3065 210.718 14.3065C210.219 14.3065 208.658 15.0363 205.837 16.56C203.539 17.8049 201.543 18.8135 201.434 18.8135C201.326 18.8135 201.217 18.7276 201.217 18.5989C201.217 18.4917 201.391 17.8263 201.608 17.1609C201.825 16.4742 202.236 15.487 202.562 14.9504C202.866 14.4138 203.647 13.5125 204.276 12.933C204.927 12.3535 205.859 11.6882 206.38 11.4306C206.944 11.1516 207.291 10.8297 207.291 10.6151C207.291 10.4005 207.138 10.1858 206.965 10.1214C206.792 10.0571 206.142 10.2717 205.512 10.6151C204.883 10.937 203.842 11.7311 203.169 12.375C202.497 13.0188 201.673 14.1134 201.326 14.7787C200.957 15.4655 200.631 16.0235 200.566 16.0235C200.501 16.0235 200.155 15.4655 199.808 14.7787C199.46 14.1134 198.614 13.0188 197.942 12.375C197.27 11.7311 196.228 10.937 195.621 10.6151C194.992 10.2717 194.341 10.0571 194.167 10.1214C193.994 10.1858 193.842 10.4005 193.842 10.6151C193.842 10.8297 194.232 11.1945 194.862 11.5165C195.403 11.8169 196.272 12.3964 196.748 12.8256C197.247 13.2549 197.942 14.0704 198.332 14.6499C198.723 15.2294 199.157 16.0879 199.33 16.56C199.503 17.0322 199.699 17.7404 199.764 18.1267C199.873 18.5989 199.829 18.8135 199.656 18.8135C199.503 18.8135 197.529 17.7833 195.253 16.56C192.193 14.886 190.936 14.3065 190.372 14.3279C189.742 14.3279 189.439 14.5211 188.593 15.3797C187.79 16.1952 187.443 16.4313 187.074 16.3454C186.792 16.281 184.385 16.0879 181.694 15.8732C178.137 15.6157 174.211 15.5084 167.27 15.5084C159.937 15.487 156.705 15.5728 153.279 15.8732C150.826 16.0879 145.751 16.5814 141.998 17.0107C138.246 17.4185 131.89 18.1911 127.898 18.7276C123.907 19.2643 116.228 20.3159 110.87 21.0885C105.512 21.8612 97.8334 23.02 93.8419 23.664C89.8509 24.3078 84.6232 25.2307 82.2368 25.7028C79.8507 26.175 75.9898 26.9906 73.6685 27.5057C71.3476 28.0207 68.2239 28.686 66.7272 28.9864C65.2304 29.2868 62.2586 29.8021 60.1111 30.1669C57.9636 30.5103 53.4299 31.1971 50.0244 31.6693C46.6187 32.1414 42.519 32.635 40.9136 32.7853C39.0481 32.9354 36.1631 32.9783 32.9962 32.914C30.2414 32.8282 27.6166 32.6993 27.1394 32.5921C26.6187 32.5063 26.3801 32.3775 26.5536 32.2701C26.6838 32.1842 28.3974 31.9697 30.3497 31.7981C32.2802 31.6262 35.7726 31.24 38.0937 30.9394C40.415 30.639 44.276 30.0596 46.6622 29.6518C49.0483 29.244 53.8421 28.3428 57.2911 27.6343C60.7402 26.9261 66.597 25.7028 70.3063 24.9303C74.0156 24.1361 83.5168 22.0543 91.4559 20.2945C99.3952 18.5345 107.92 16.6673 110.436 16.1308C112.931 15.6157 116.901 14.843 119.222 14.4354C121.543 14.0061 125.404 13.3837 127.79 13.0188C130.176 12.6754 134.319 12.1389 137.008 11.8599C139.699 11.5594 143.885 11.1731 146.337 10.9799C148.788 10.8082 152.974 10.5721 155.665 10.4434C158.354 10.3361 163.473 10.2288 167.053 10.2288C170.631 10.2288 175.707 10.3361 178.333 10.4434C180.957 10.5507 183.972 10.7009 187.009 10.937L187.312 10.1C187.464 9.62782 187.986 8.53326 188.441 7.65332C188.896 6.77338 189.721 5.48567 190.263 4.82036C190.805 4.13357 191.76 3.16779 192.389 2.67415C192.996 2.202 194.146 1.49375 194.927 1.1289C195.708 0.785507 196.835 0.356267 197.422 0.206034C198.094 0.034339 199.439 -0.0300467 201 0.0128772ZM190.48 15.3797C190.587 15.4011 192.823 16.56 195.426 17.955C198.007 19.3716 200.307 20.5304 200.501 20.5304C200.718 20.5304 203.04 19.3716 205.664 17.955C208.288 16.5386 210.566 15.3797 210.718 15.3797C210.848 15.3797 211.305 15.7445 211.672 16.2166C212.063 16.6673 212.627 17.1609 212.931 17.3112C213.365 17.5258 213.994 17.5258 215.968 17.3326C217.334 17.2039 220.175 16.9892 222.259 16.8391C224.342 16.7103 229.72 16.5814 234.189 16.5814C240.068 16.5814 243.583 16.6888 246.878 16.9464C249.373 17.1609 253.734 17.5688 256.531 17.8692C259.331 18.1483 264.275 18.7276 267.487 19.1354C270.696 19.5433 277.877 20.509 283.43 21.2817C288.983 22.0543 296.4 23.1275 299.915 23.664C303.43 24.2006 308.507 25.016 311.195 25.4668C313.885 25.9389 317.746 26.6471 319.764 27.0549C321.782 27.4626 325.686 28.2996 328.441 28.9007C331.194 29.5015 335.231 30.3171 337.443 30.725C339.656 31.1328 344.492 31.8838 348.18 32.4204C351.868 32.9569 356.379 33.5578 358.158 33.7511C360.241 33.9872 363.103 34.116 366.076 34.116C369.112 34.116 372.585 33.9656 376.053 33.6651C378.982 33.4075 382.692 33.0429 384.298 32.8496C385.904 32.6779 388.94 32.2487 391.023 31.9053C393.103 31.5619 395.923 30.9394 397.269 30.5317C398.593 30.1025 399.981 29.7592 400.349 29.7592C400.849 29.7592 401 29.845 401 30.1883C401 30.4246 400.543 31.1113 399.96 31.7121C399.395 32.3129 398.309 33.236 397.529 33.7296C396.748 34.2446 395.426 34.9529 394.6 35.2963C393.775 35.6397 392.257 36.1333 391.238 36.3694C390.221 36.6271 387.985 37.0133 386.249 37.2493C384.514 37.4854 381.888 37.8072 380.392 37.9575C378.809 38.1078 375.013 38.215 371.282 38.215C367.767 38.215 363.474 38.0863 361.736 37.9575C360.003 37.8072 356.879 37.4854 354.796 37.2493C352.713 37.0347 349.287 36.5839 347.205 36.2835C345.122 36.0046 341.348 35.425 338.854 34.9958C336.358 34.5881 331.91 33.8154 328.983 33.2788C326.054 32.7425 319.526 31.4976 314.45 30.5103C309.373 29.5229 303.474 28.4285 301.326 28.0637C299.178 27.6988 295.751 27.1836 293.733 26.8832C291.716 26.5828 288.484 26.1536 286.575 25.9175C284.666 25.6813 280.914 25.2307 278.224 24.9517C275.533 24.6512 270.805 24.2221 267.703 23.9644C264.602 23.7283 258.982 23.4279 255.229 23.3204C251.477 23.2132 245.469 23.106 241.889 23.106C238.309 23.106 233.819 23.2132 231.912 23.3204C230.002 23.4279 227.313 23.6854 225.947 23.8785C224.58 24.0718 222.194 24.5439 220.632 24.9303C219.092 25.3165 216.639 26.089 215.209 26.6471C213.777 27.205 211.326 28.2996 209.785 29.0938C208.245 29.8879 206.098 31.0899 205.013 31.755C203.929 32.4204 202.497 33.3647 200.566 34.6954L197.464 32.6779C195.773 31.5619 193.17 30.0167 191.673 29.2654C190.176 28.4929 187.79 27.4197 186.358 26.8404C184.927 26.2824 182.779 25.5525 181.585 25.2092C180.393 24.8657 178.289 24.3936 176.922 24.1789C175.556 23.9429 173.452 23.664 172.258 23.5353C171.066 23.4064 166.662 23.2347 162.498 23.1703C158.31 23.106 151.348 23.1703 146.987 23.299C142.628 23.4279 137.118 23.6854 134.732 23.8571C132.346 24.0287 128.875 24.3293 127.031 24.501C125.187 24.694 121.174 25.1233 118.137 25.4882C115.1 25.8315 110.263 26.4754 107.4 26.8832C104.536 27.291 100.784 27.8704 99.048 28.1708C97.3128 28.4715 91.7595 29.5229 86.6838 30.5103C81.6079 31.4976 74.7748 32.8067 71.4994 33.3861C68.2239 33.9872 63.777 34.7597 61.6296 35.1032C59.4821 35.4679 56.0114 36.0046 53.9289 36.2835C51.8464 36.5839 48.8095 36.9917 47.2045 37.1636C45.5991 37.3567 42.6708 37.6357 40.6967 37.8072C38.7228 37.9792 35.0135 38.1936 32.454 38.2582C29.6122 38.3439 26.2499 38.301 23.8857 38.1508C21.7382 38.0006 18.4193 37.7 16.5103 37.464C14.6014 37.2279 12.0635 36.8415 10.8704 36.6056C9.67733 36.3694 7.96367 35.8757 7.07431 35.5539C6.18494 35.2104 4.70988 34.4379 3.82052 33.8585C2.93115 33.2788 1.67302 32.2701 1.04395 31.6047C0.436579 30.9394 -0.0406435 30.2743 0.00274043 30.1454C0.0461243 29.9736 0.414888 29.8879 1.02226 29.9093C1.54287 29.9308 2.95284 30.2526 4.14589 30.6175C5.33896 30.9825 7.96367 31.5619 10.0027 31.9053C12.0201 32.2487 15.4908 32.7208 17.7034 32.9569C19.9159 33.1931 23.7119 33.5578 26.1632 33.7511C28.6145 33.9656 32.6491 34.1375 35.1653 34.116C38.007 34.116 40.9572 33.9872 42.9745 33.7511C44.7532 33.5578 49.2435 32.9569 52.9528 32.4204C56.6621 31.8838 61.2825 31.1542 63.2564 30.8108C65.2304 30.446 69.2867 29.6304 72.2585 28.9864C75.2304 28.3211 79.5906 27.4197 81.9115 26.9475C84.2325 26.4754 88.0937 25.7672 90.4798 25.3594C92.8659 24.9517 97.7032 24.1789 101.217 23.664C104.732 23.1275 112.107 22.0757 117.595 21.3031C123.083 20.5304 130.263 19.5647 133.538 19.1569C136.814 18.7276 141.803 18.1483 144.601 17.8692C147.4 17.5688 151.651 17.1825 154.037 16.9892C156.423 16.8175 160.567 16.603 163.256 16.5386C165.968 16.4527 170.74 16.5171 173.994 16.6458C177.226 16.7747 181.608 17.0322 183.755 17.2254C185.903 17.3971 187.812 17.4829 187.986 17.4185C188.159 17.3756 188.744 16.882 189.287 16.3454C189.807 15.8089 190.349 15.3797 190.48 15.3797Z" fill="white"/>
<path d="M89.7979 56.5714L93.442 48.4714H95.3107L98.9664 56.5714H96.9808L93.9908 49.4203H94.7384L91.7367 56.5714H89.7979ZM91.6199 54.8357L92.1221 53.4125H96.3268L96.8407 54.8357H91.6199ZM102.501 56.7103C101.847 56.7103 101.22 56.6254 100.621 56.4557C100.021 56.2783 99.5382 56.0507 99.1723 55.773L99.8147 54.3613C100.165 54.6082 100.578 54.8126 101.053 54.9746C101.535 55.1289 102.022 55.206 102.513 55.206C102.886 55.206 103.186 55.1713 103.412 55.1018C103.646 55.0247 103.817 54.9206 103.926 54.7894C104.035 54.6583 104.089 54.5079 104.089 54.3382C104.089 54.1221 104.004 53.9525 103.832 53.829C103.661 53.6979 103.435 53.5937 103.155 53.5165C102.875 53.4317 102.563 53.3546 102.221 53.2851C101.886 53.208 101.547 53.1154 101.205 53.0075C100.87 52.8994 100.562 52.7606 100.282 52.5908C100.002 52.4211 99.7718 52.1975 99.5928 51.9197C99.4215 51.6421 99.3358 51.2872 99.3358 50.8551C99.3358 50.3922 99.4604 49.9718 99.7095 49.5939C99.9665 49.2082 100.348 48.9035 100.854 48.6797C101.368 48.4483 102.01 48.3326 102.781 48.3326C103.295 48.3326 103.801 48.3943 104.3 48.5178C104.798 48.6335 105.238 48.8108 105.619 49.05L105.036 50.4733C104.654 50.2572 104.272 50.0992 103.891 49.9989C103.509 49.8908 103.136 49.8368 102.77 49.8368C102.404 49.8368 102.104 49.8793 101.87 49.9642C101.637 50.049 101.469 50.1608 101.368 50.2997C101.267 50.4308 101.216 50.5851 101.216 50.7625C101.216 50.9708 101.302 51.1406 101.473 51.2718C101.644 51.3951 101.87 51.4954 102.151 51.5726C102.431 51.6497 102.738 51.7268 103.073 51.804C103.416 51.8811 103.755 51.9699 104.089 52.0701C104.432 52.1704 104.743 52.3054 105.024 52.4751C105.304 52.6449 105.53 52.8686 105.701 53.1463C105.88 53.424 105.97 53.775 105.97 54.1993C105.97 54.6544 105.841 55.071 105.584 55.449C105.327 55.8271 104.942 56.1317 104.428 56.3632C103.922 56.5946 103.28 56.7103 102.501 56.7103ZM102.256 59.256C102.053 59.256 101.855 59.2329 101.66 59.1865C101.473 59.1403 101.31 59.0825 101.17 59.013L101.45 58.2378C101.567 58.2917 101.687 58.3342 101.812 58.365C101.936 58.3958 102.069 58.4113 102.209 58.4113C102.427 58.4113 102.583 58.3765 102.676 58.3071C102.77 58.2378 102.816 58.149 102.816 58.041C102.816 57.9407 102.77 57.8597 102.676 57.798C102.59 57.7363 102.446 57.7054 102.244 57.7054H101.847L102.151 56.4789H103.12L102.957 57.15C103.307 57.1886 103.564 57.2965 103.727 57.474C103.891 57.6592 103.973 57.8713 103.973 58.1104C103.973 58.4576 103.817 58.7353 103.505 58.9436C103.194 59.1518 102.777 59.256 102.256 59.256ZM111.21 56.7103C110.564 56.7103 109.968 56.61 109.423 56.4094C108.886 56.2011 108.415 55.908 108.01 55.53C107.613 55.1521 107.301 54.7085 107.076 54.1993C106.858 53.6901 106.749 53.1308 106.749 52.5214C106.749 51.9121 106.858 51.3528 107.076 50.8436C107.301 50.3344 107.617 49.8908 108.022 49.5129C108.427 49.1349 108.902 48.8456 109.447 48.645C109.992 48.4368 110.591 48.3326 111.245 48.3326C111.97 48.3326 112.62 48.4522 113.196 48.6913C113.78 48.9304 114.27 49.2776 114.667 49.7328L113.453 50.8436C113.157 50.535 112.834 50.3075 112.483 50.1608C112.133 50.0065 111.751 49.9294 111.339 49.9294C110.942 49.9294 110.58 49.9911 110.253 50.1146C109.926 50.238 109.641 50.4154 109.4 50.6468C109.166 50.8783 108.983 51.1521 108.851 51.4685C108.726 51.7847 108.664 52.1357 108.664 52.5214C108.664 52.8994 108.726 53.2465 108.851 53.5629C108.983 53.8792 109.166 54.1568 109.4 54.396C109.641 54.6275 109.922 54.8049 110.241 54.9283C110.568 55.0517 110.926 55.1135 111.315 55.1135C111.689 55.1135 112.051 55.0556 112.402 54.9399C112.76 54.8164 113.106 54.6121 113.441 54.3265L114.516 55.6804C114.072 56.0121 113.554 56.2667 112.962 56.4442C112.378 56.6215 111.794 56.7103 111.21 56.7103ZM112.787 55.4375V52.3942H114.516V55.6804L112.787 55.4375ZM115.199 56.5714L118.843 48.4714H120.712L124.367 56.5714H122.382L119.392 49.4203H120.139L117.138 56.5714H115.199ZM117.021 54.8357L117.523 53.4125H121.728L122.242 54.8357H117.021ZM125.215 56.5714V48.4714H129.21C130.238 48.4714 131.009 48.6643 131.522 49.05C132.044 49.4357 132.305 49.9449 132.305 50.5775C132.305 51.0017 132.2 51.3721 131.99 51.6883C131.779 51.9968 131.491 52.236 131.125 52.4057C130.759 52.5754 130.339 52.6603 129.864 52.6603L130.086 52.1858C130.6 52.1858 131.055 52.2707 131.452 52.4404C131.849 52.6025 132.157 52.8454 132.375 53.1694C132.601 53.4935 132.714 53.8907 132.714 54.3613C132.714 55.0556 132.437 55.5994 131.885 55.9929C131.332 56.3786 130.518 56.5714 129.443 56.5714H125.215ZM127.096 55.1597H129.303C129.794 55.1597 130.164 55.0826 130.413 54.9283C130.67 54.7663 130.798 54.5118 130.798 54.1646C130.798 53.8251 130.67 53.5744 130.413 53.4125C130.164 53.2428 129.794 53.1579 129.303 53.1579H126.956V51.7925H128.976C129.436 51.7925 129.786 51.7153 130.027 51.561C130.277 51.399 130.401 51.156 130.401 50.8321C130.401 50.5157 130.277 50.2804 130.027 50.1261C129.786 49.9642 129.436 49.8832 128.976 49.8832H127.096V55.1597ZM133.071 56.5714L136.716 48.4714H138.585L142.24 56.5714H140.255L137.265 49.4203H138.013L135.01 56.5714H133.071ZM134.893 54.8357L135.396 53.4125H139.601L140.114 54.8357H134.893ZM144.372 56.5714V49.9989H141.755V48.4714H148.88V49.9989H146.263V56.5714H144.372ZM158.812 48.4714H160.704V56.5714H158.812V48.4714ZM155.097 56.5714H153.206V48.4714H155.097V56.5714ZM158.952 53.2504H154.957V51.6651H158.952V53.2504ZM161.563 56.5714L165.208 48.4714H167.077L170.732 56.5714H168.747L165.757 49.4203H166.504L163.502 56.5714H161.563ZM163.386 54.8357L163.889 53.4125H168.093L168.607 54.8357H163.386ZM171.58 56.5714V48.4714H173.473V55.044H177.572V56.5714H171.58ZM180.323 54.72L180.217 52.5561L184.13 48.4714H186.232L182.705 52.2321L181.654 53.343L180.323 54.72ZM178.629 56.5714V48.4714H180.51V56.5714H178.629ZM184.223 56.5714L181.316 53.0422L182.553 51.7114L186.431 56.5714H184.223ZM185.835 56.5714L189.48 48.4714H191.348L195.004 56.5714H193.019L190.029 49.4203H190.775L187.774 56.5714H185.835ZM187.657 54.8357L188.16 53.4125H192.365L192.878 54.8357H187.657ZM195.852 56.5714V48.4714H199.391C200.123 48.4714 200.754 48.591 201.283 48.8301C201.813 49.0615 202.222 49.3971 202.509 49.8368C202.797 50.2765 202.942 50.8011 202.942 51.4106C202.942 52.0122 202.797 52.533 202.509 52.9728C202.222 53.4047 201.813 53.7364 201.283 53.9679C200.754 54.1993 200.123 54.315 199.391 54.315H196.903L197.745 53.4935V56.5714H195.852ZM201.049 56.5714L199.006 53.6322H201.027L203.094 56.5714H201.049ZM197.745 53.7018L196.903 52.8222H199.286C199.87 52.8222 200.305 52.6989 200.594 52.4521C200.882 52.1975 201.027 51.8503 201.027 51.4106C201.027 50.9632 200.882 50.616 200.594 50.3692C200.305 50.1222 199.87 49.9989 199.286 49.9989H196.903L197.745 49.1079V53.7018ZM203.367 56.5714L207.01 48.4714H208.879L212.534 56.5714H210.549L207.559 49.4203H208.307L205.305 56.5714H203.367ZM205.188 54.8357L205.69 53.4125H209.895L210.409 54.8357H205.188ZM222.298 48.4714H224.188V56.5714H222.298V48.4714ZM218.582 56.5714H216.691V48.4714H218.582V56.5714ZM222.436 53.2504H218.443V51.6651H222.436V53.2504ZM230.095 56.7103C229.449 56.7103 228.849 56.6061 228.295 56.3979C227.751 56.1896 227.277 55.8964 226.869 55.5185C226.474 55.1404 226.163 54.6968 225.935 54.1878C225.719 53.6786 225.609 53.1232 225.609 52.5214C225.609 51.9197 225.719 51.3643 225.935 50.8551C226.163 50.346 226.479 49.9025 226.883 49.5244C227.288 49.1464 227.763 48.8533 228.308 48.645C228.853 48.4368 229.443 48.3326 230.081 48.3326C230.729 48.3326 231.321 48.4368 231.857 48.645C232.403 48.8533 232.874 49.1464 233.272 49.5244C233.677 49.9025 233.992 50.346 234.217 50.8551C234.442 51.3565 234.557 51.9121 234.557 52.5214C234.557 53.1232 234.442 53.6825 234.217 54.1993C233.992 54.7085 233.677 55.1521 233.272 55.53C232.874 55.9003 232.403 56.1896 231.857 56.3979C231.321 56.6061 230.732 56.7103 230.095 56.7103ZM230.081 55.1135C230.449 55.1135 230.783 55.0517 231.087 54.9283C231.399 54.8049 231.672 54.6275 231.905 54.396C232.139 54.1646 232.318 53.8907 232.441 53.5744C232.573 53.2582 232.641 52.9071 232.641 52.5214C232.641 52.1357 232.573 51.7847 232.441 51.4685C232.318 51.1521 232.139 50.8783 231.905 50.6468C231.679 50.4154 231.41 50.238 231.099 50.1146C230.787 49.9911 230.449 49.9294 230.081 49.9294C229.716 49.9294 229.379 49.9911 229.068 50.1146C228.762 50.238 228.495 50.4154 228.26 50.6468C228.027 50.8783 227.843 51.1521 227.711 51.4685C227.588 51.7847 227.526 52.1357 227.526 52.5214C227.526 52.8994 227.588 53.2504 227.711 53.5744C227.843 53.8907 228.023 54.1646 228.25 54.396C228.484 54.6275 228.757 54.8049 229.068 54.9283C229.379 55.0517 229.716 55.1135 230.081 55.1135ZM237.667 56.5714L234.991 48.4714H236.954L239.278 55.6457H238.297L240.726 48.4714H242.478L244.814 55.6457H243.868L246.251 48.4714H248.061L245.387 56.5714H243.354L241.288 50.2765H241.824L239.699 56.5714H237.667ZM247.77 56.5714L251.412 48.4714H253.281L256.939 56.5714H254.953L251.962 49.4203H252.711L249.708 56.5714H247.77ZM249.591 54.8357L250.093 53.4125H254.298L254.812 54.8357H249.591ZM261.093 56.5714V48.4714H262.659L266.14 54.1878H265.308L268.732 48.4714H270.286L270.31 56.5714H268.534L268.52 51.1676H268.85L266.116 55.7151H265.263L262.471 51.1676H262.869V56.5714H261.093ZM273.989 51.7346H277.925V53.1925H273.989V51.7346ZM274.129 55.0671H278.579V56.5714H272.25V48.4714H278.426V49.9757H274.129V55.0671ZM280.083 56.5714V48.4714H281.65L286.473 54.3035H285.713V48.4714H287.582V56.5714H286.029L281.194 50.7394H281.952V56.5714H280.083ZM288.993 56.5714V55.3564L294.049 49.3161L294.282 49.9989H289.085V48.4714H295.963V49.6864L290.92 55.7267L290.687 55.044H296.139V56.5714H288.993ZM297.353 56.5714V48.4714H299.245V56.5714H297.353ZM301.185 56.5714V48.4714H303.078V55.044H307.177V56.5714H301.185ZM308.234 56.5714V48.4714H310.126V56.5714H308.234ZM84.5226 71.5714L88.1667 63.4714H90.0353L93.6911 71.5714H91.7055L88.7156 64.4203H89.4631L86.4614 71.5714H84.5226ZM86.3447 69.8357L86.8468 68.4125H91.0515L91.5654 69.8357H86.3447ZM97.2257 71.7103C96.5716 71.7103 95.9449 71.6254 95.3452 71.4557C94.7457 71.2783 94.2629 71.0507 93.897 70.773L94.5394 69.3613C94.8898 69.6082 95.3025 69.8126 95.7774 69.9746C96.2602 70.1289 96.7469 70.206 97.2373 70.206C97.6111 70.206 97.911 70.1713 98.1367 70.1018C98.3703 70.0247 98.5416 69.9206 98.6506 69.7894C98.7597 69.6583 98.8141 69.5079 98.8141 69.3382C98.8141 69.1221 98.7284 68.9525 98.5572 68.829C98.3858 68.6979 98.16 68.5937 97.8797 68.5165C97.5994 68.4317 97.288 68.3546 96.9454 68.2851C96.6105 68.208 96.2719 68.1154 95.9292 68.0075C95.5944 67.8994 95.2869 67.7606 95.0066 67.5908C94.7262 67.4211 94.4965 67.1975 94.3174 66.9197C94.1462 66.6421 94.0606 66.2871 94.0606 65.8551C94.0606 65.3922 94.1851 64.9718 94.4343 64.5939C94.6912 64.2082 95.0727 63.9035 95.5788 63.6797C96.0928 63.4483 96.7351 63.3326 97.506 63.3326C98.0199 63.3326 98.5261 63.3943 99.0244 63.5178C99.5226 63.6335 99.9627 63.8108 100.344 64.05L99.7602 65.4733C99.3786 65.2572 98.9971 65.0992 98.6155 64.9989C98.234 64.8908 97.8603 64.8368 97.4943 64.8368C97.1284 64.8368 96.8286 64.8793 96.5949 64.9642C96.3613 65.049 96.1939 65.1608 96.0928 65.2997C95.9916 65.4308 95.9409 65.5851 95.9409 65.7626C95.9409 65.9708 96.0267 66.1406 96.1979 66.2717C96.3692 66.3951 96.5949 66.4954 96.8752 66.5726C97.1557 66.6497 97.4632 66.7268 97.7979 66.804C98.1406 66.8811 98.4792 66.9699 98.8141 67.0701C99.1567 67.1704 99.4682 67.3054 99.7485 67.4751C100.029 67.6449 100.255 67.8686 100.426 68.1463C100.605 68.424 100.695 68.775 100.695 69.1993C100.695 69.6544 100.566 70.071 100.309 70.449C100.052 70.8271 99.6667 71.1317 99.1529 71.3632C98.6466 71.5946 98.0044 71.7103 97.2257 71.7103ZM107.594 63.4714H109.486V71.5714H107.594V63.4714ZM103.88 71.5714H101.988V63.4714H103.88V71.5714ZM107.734 68.2504H103.739V66.6651H107.734V68.2504ZM115.368 71.7103C114.722 71.7103 114.126 71.61 113.581 71.4094C113.044 71.2011 112.572 70.908 112.168 70.53C111.77 70.1521 111.459 69.7085 111.233 69.1993C111.015 68.6901 110.906 68.1308 110.906 67.5214C110.906 66.9121 111.015 66.3528 111.233 65.8436C111.459 65.3344 111.774 64.8908 112.179 64.5129C112.584 64.1349 113.059 63.8456 113.604 63.645C114.149 63.4367 114.749 63.3326 115.403 63.3326C116.127 63.3326 116.777 63.4521 117.353 63.6913C117.937 63.9304 118.428 64.2776 118.825 64.7328L117.61 65.8436C117.314 65.535 116.991 65.3075 116.641 65.1608C116.291 65.0065 115.909 64.9294 115.496 64.9294C115.099 64.9294 114.737 64.9911 114.41 65.1146C114.083 65.238 113.799 65.4154 113.557 65.6468C113.324 65.8783 113.141 66.1521 113.009 66.4685C112.884 66.7847 112.822 67.1357 112.822 67.5214C112.822 67.8994 112.884 68.2465 113.009 68.5629C113.141 68.8792 113.324 69.1568 113.557 69.396C113.799 69.6275 114.079 69.8049 114.398 69.9283C114.725 70.0517 115.084 70.1135 115.473 70.1135C115.847 70.1135 116.209 70.0556 116.559 69.9399C116.917 69.8164 117.264 69.6121 117.599 69.3265L118.673 70.6804C118.229 71.0121 117.711 71.2668 117.12 71.4442C116.536 71.6215 115.952 71.7103 115.368 71.7103ZM116.945 70.4375V67.3942H118.673V70.6804L116.945 70.4375ZM119.356 71.5714L123 63.4714H124.869L128.525 71.5714H126.539L123.549 64.4203H124.297L121.295 71.5714H119.356ZM121.178 69.8357L121.68 68.4125H125.885L126.399 69.8357H121.178ZM129.373 71.5714V63.4714H133.368C134.395 63.4714 135.166 63.6643 135.68 64.05C136.201 64.4357 136.463 64.9449 136.463 65.5775C136.463 66.0017 136.357 66.3721 136.147 66.6883C135.936 66.9968 135.649 67.236 135.283 67.4057C134.917 67.5754 134.496 67.6603 134.021 67.6603L134.244 67.1858C134.757 67.1858 135.212 67.2707 135.609 67.4404C136.006 67.6025 136.315 67.8454 136.533 68.1694C136.758 68.4935 136.871 68.8907 136.871 69.3613C136.871 70.0556 136.595 70.5994 136.042 70.9929C135.489 71.3786 134.675 71.5714 133.6 71.5714H129.373ZM131.253 70.1597H133.46C133.951 70.1597 134.322 70.0826 134.571 69.9283C134.827 69.7663 134.956 69.5117 134.956 69.1646C134.956 68.8251 134.827 68.5744 134.571 68.4125C134.322 68.2428 133.951 68.1579 133.46 68.1579H131.113V66.7925H133.133C133.593 66.7925 133.943 66.7153 134.185 66.561C134.434 66.399 134.559 66.156 134.559 65.8321C134.559 65.5157 134.434 65.2804 134.185 65.1261C133.943 64.9642 133.593 64.8832 133.133 64.8832H131.253V70.1597ZM137.229 71.5714L140.873 63.4714H142.741L146.398 71.5714H144.412L141.422 64.4203H142.17L139.168 71.5714H137.229ZM139.052 69.8357L139.553 68.4125H143.758L144.273 69.8357H139.052ZM148.529 71.5714V64.9989H145.912V63.4714H153.038V64.9989H150.421V71.5714H148.529ZM157.363 71.5714V63.4714H159.255V71.5714H157.363ZM161.195 71.5714V63.4714H162.761L167.584 69.3035H166.825V63.4714H168.694V71.5714H167.14L162.304 65.7394H163.064V71.5714H161.195ZM172.321 71.5714V64.9989H169.705V63.4714H176.83V64.9989H174.214V71.5714H172.321ZM179.588 66.7346H183.524V68.1926H179.588V66.7346ZM179.729 70.0671H184.178V71.5714H177.848V63.4714H184.026V64.9757H179.729V70.0671ZM185.684 71.5714V63.4714H189.223C189.955 63.4714 190.585 63.591 191.114 63.8301C191.645 64.0615 192.053 64.3971 192.341 64.8368C192.63 65.2765 192.774 65.8011 192.774 66.4106C192.774 67.0122 192.63 67.533 192.341 67.9728C192.053 68.4047 191.645 68.7364 191.114 68.9679C190.585 69.1993 189.955 69.315 189.223 69.315H186.735L187.575 68.4935V71.5714H185.684ZM190.881 71.5714L188.838 68.6322H190.857L192.925 71.5714H190.881ZM187.575 68.7017L186.735 67.8222H189.117C189.702 67.8222 190.138 67.6989 190.426 67.4521C190.713 67.1975 190.857 66.8503 190.857 66.4106C190.857 65.9632 190.713 65.616 190.426 65.3692C190.138 65.1222 189.702 64.9989 189.117 64.9989H186.735L187.575 64.1079V68.7017ZM194.272 71.5714V63.4714H195.838L200.661 69.3035H199.902V63.4714H201.77V71.5714H200.217L195.382 65.7394H196.141V71.5714H194.272ZM202.631 71.5714L206.274 63.4714H208.143L211.799 71.5714H209.813L206.823 64.4203H207.571L204.57 71.5714H202.631ZM204.453 69.8357L204.955 68.4125H209.159L209.673 69.8357H204.453ZM213.93 71.5714V64.9989H211.314V63.4714H218.439V64.9989H215.823V71.5714H213.93ZM219.456 71.5714V63.4714H221.348V71.5714H219.456ZM227.26 71.7103C226.613 71.7103 226.013 71.6061 225.463 71.3979C224.917 71.1896 224.441 70.8964 224.037 70.5185C223.639 70.1404 223.327 69.6968 223.103 69.1878C222.883 68.6786 222.776 68.1232 222.776 67.5214C222.776 66.9197 222.883 66.3643 223.103 65.8551C223.327 65.346 223.643 64.9025 224.048 64.5244C224.451 64.1464 224.928 63.8533 225.473 63.645C226.018 63.4367 226.61 63.3326 227.248 63.3326C227.895 63.3326 228.485 63.4367 229.024 63.645C229.569 63.8533 230.039 64.1464 230.436 64.5244C230.841 64.9025 231.157 65.346 231.382 65.8551C231.609 66.3565 231.721 66.9121 231.721 67.5214C231.721 68.1232 231.609 68.6825 231.382 69.1993C231.157 69.7085 230.841 70.1521 230.436 70.53C230.039 70.9003 229.569 71.1896 229.024 71.3979C228.485 71.6061 227.898 71.7103 227.26 71.7103ZM227.248 70.1135C227.614 70.1135 227.949 70.0517 228.252 69.9283C228.563 69.8049 228.836 69.6275 229.07 69.396C229.303 69.1646 229.483 68.8907 229.609 68.5744C229.74 68.2582 229.805 67.9072 229.805 67.5214C229.805 67.1357 229.74 66.7847 229.609 66.4685C229.483 66.1521 229.303 65.8783 229.07 65.6468C228.845 65.4154 228.577 65.238 228.266 65.1146C227.953 64.9911 227.614 64.9294 227.248 64.9294C226.883 64.9294 226.544 64.9911 226.231 65.1146C225.93 65.238 225.658 65.4154 225.426 65.6468C225.191 65.8783 225.01 66.1521 224.878 66.4685C224.752 66.7847 224.69 67.1357 224.69 67.5214C224.69 67.8994 224.752 68.2504 224.878 68.5744C225.01 68.8907 225.19 69.1646 225.415 69.396C225.648 69.6275 225.92 69.8049 226.231 69.9283C226.544 70.0517 226.883 70.1135 227.248 70.1135ZM233.145 71.5714V63.4714H234.708L239.532 69.3035H238.772V63.4714H240.641V71.5714H239.089L234.254 65.7394H235.014V71.5714H233.145ZM241.503 71.5714L245.146 63.4714H247.015L250.67 71.5714H248.685L245.694 64.4203H246.442L243.44 71.5714H241.503ZM243.324 69.8357L243.825 68.4125H248.03L248.545 69.8357H243.324ZM251.518 71.5714V63.4714H253.411V70.044H257.509V71.5714H251.518ZM260.801 71.5714L264.444 63.4714H266.313L269.97 71.5714H267.984L264.993 64.4203H265.741L262.74 71.5714H260.801ZM262.623 69.8357L263.125 68.4125H267.329L267.844 69.8357H262.623ZM270.818 71.5714V63.4714H272.71V71.5714H270.818ZM274.651 71.5714V63.4714H278.189C278.92 63.4714 279.551 63.591 280.082 63.8301C280.609 64.0615 281.018 64.3971 281.307 64.8368C281.596 65.2765 281.739 65.8011 281.739 66.4106C281.739 67.0122 281.596 67.533 281.307 67.9728C281.018 68.4047 280.609 68.7364 280.082 68.9679C279.551 69.1993 278.92 69.315 278.189 69.315H275.701L276.54 68.4935V71.5714H274.651ZM279.848 71.5714L277.804 68.6322H279.824L281.892 71.5714H279.848ZM276.54 68.7017L275.701 67.8222H278.084C278.667 67.8222 279.104 67.6989 279.391 67.4521C279.68 67.1975 279.824 66.8503 279.824 66.4106C279.824 65.9632 279.68 65.616 279.391 65.3692C279.104 65.1222 278.667 64.9989 278.084 64.9989H275.701L276.54 64.1079V68.7017ZM283.237 71.5714V63.4714H286.777C287.509 63.4714 288.14 63.591 288.668 63.8301C289.198 64.0615 289.607 64.3971 289.894 64.8368C290.184 65.2765 290.327 65.8011 290.327 66.4106C290.327 67.0122 290.184 67.533 289.894 67.9728C289.607 68.4125 289.198 68.7518 288.668 68.991C288.14 69.2225 287.509 69.3382 286.777 69.3382H284.288L285.13 68.4935V71.5714H283.237ZM285.13 68.7017L284.288 67.8107H286.671C287.256 67.8107 287.693 67.6872 287.98 67.4404C288.267 67.1936 288.413 66.8503 288.413 66.4106C288.413 65.9632 288.267 65.616 287.98 65.3692C287.693 65.1222 287.256 64.9989 286.671 64.9989H284.288L285.13 64.1079V68.7017ZM295.765 71.7103C295.117 71.7103 294.519 71.6061 293.965 71.3979C293.419 71.1896 292.944 70.8964 292.539 70.5185C292.144 70.1404 291.833 69.6968 291.605 69.1878C291.387 68.6786 291.278 68.1232 291.278 67.5214C291.278 66.9197 291.387 66.3643 291.605 65.8551C291.833 65.346 292.146 64.9025 292.553 64.5244C292.958 64.1464 293.431 63.8533 293.975 63.645C294.521 63.4367 295.113 63.3326 295.751 63.3326C296.399 63.3326 296.991 63.4367 297.527 63.645C298.073 63.8533 298.544 64.1464 298.94 64.5244C299.346 64.9025 299.659 65.346 299.887 65.8551C300.112 66.3565 300.225 66.9121 300.225 67.5214C300.225 68.1232 300.112 68.6825 299.887 69.1993C299.659 69.7085 299.346 70.1521 298.94 70.53C298.544 70.9003 298.073 71.1896 297.527 71.3979C296.991 71.6061 296.402 71.7103 295.765 71.7103ZM295.751 70.1135C296.117 70.1135 296.453 70.0517 296.757 69.9283C297.068 69.8049 297.341 69.6275 297.575 69.396C297.808 69.1646 297.985 68.8907 298.111 68.5744C298.243 68.2582 298.311 67.9072 298.311 67.5214C298.311 67.1357 298.243 66.7847 298.111 66.4685C297.985 66.1521 297.808 65.8783 297.575 65.6468C297.347 65.4154 297.08 65.238 296.768 65.1146C296.457 64.9911 296.117 64.9294 295.751 64.9294C295.386 64.9294 295.046 64.9911 294.735 65.1146C294.432 65.238 294.165 65.4154 293.93 65.6468C293.697 65.8783 293.513 66.1521 293.381 66.4685C293.255 66.7847 293.195 67.1357 293.195 67.5214C293.195 67.8994 293.255 68.2504 293.381 68.5744C293.513 68.8907 293.692 69.1646 293.917 69.396C294.151 69.6275 294.424 69.8049 294.735 69.9283C295.046 70.0517 295.386 70.1135 295.751 70.1135ZM301.647 71.5714V63.4714H305.186C305.917 63.4714 306.549 63.591 307.079 63.8301C307.608 64.0615 308.017 64.3971 308.305 64.8368C308.593 65.2765 308.738 65.8011 308.738 66.4106C308.738 67.0122 308.593 67.533 308.305 67.9728C308.017 68.4047 307.608 68.7364 307.079 68.9679C306.549 69.1993 305.917 69.315 305.186 69.315H302.699L303.54 68.4935V71.5714H301.647ZM306.846 71.5714L304.801 68.6322H306.822L308.889 71.5714H306.846ZM303.54 68.7017L302.699 67.8222H305.08C305.664 67.8222 306.101 67.6989 306.389 67.4521C306.676 67.1975 306.822 66.8503 306.822 66.4106C306.822 65.9632 306.676 65.616 306.389 65.3692C306.101 65.1222 305.664 64.9989 305.08 64.9989H302.699L303.54 64.1079V68.7017ZM311.815 71.5714V64.9989H309.199V63.4714H316.323V64.9989H313.708V71.5714H311.815Z" fill="white"/>
</svg>
